<svg xmlns="http://www.w3.org/2000/svg" width="180" height="180" viewBox="0 0 64 64">
  <defs>
    <linearGradient id="g" x1="10" y1="8" x2="54" y2="56" gradientUnits="userSpaceOnUse">
      <stop offset="0" stop-color="#2b83d0"/>
      <stop offset="1" stop-color="#145b9e"/>
    </linearGradient>
  </defs>
  <circle cx="32" cy="32" r="28" fill="url(#g)"/>
  <circle cx="32" cy="32" r="28" fill="none" stroke="rgba(255,255,255,0.55)" stroke-width="2"/>
  <path d="M20 44V20h14c6 0 10 3.2 10 8.6 0 3.4-1.6 5.8-4.2 7 3.3 1.1 5.2 3.8 5.2 7.7 0 5.9-4.1 10.7-12 10.7H20zm8-16.2h5.3c2.2 0 3.3-1.1 3.3-2.7 0-1.7-1.1-2.8-3.3-2.8H28v5.5zm0 16.2h6.2c2.7 0 4-1.3 4-3.2 0-2-1.3-3.4-4-3.4H28v6.6z" fill="#ffffff" opacity="0.98"/>
</svg>
